<?xml version="1.0" encoding="utf-8"?>
<!-- Generator: Adobe Illustrator 22.0.0, SVG Export Plug-In . SVG Version: 6.00 Build 0)  -->
<svg version="1.1" id="Layer_1" xmlns="http://www.w3.org/2000/svg" xmlns:xlink="http://www.w3.org/1999/xlink" x="0px" y="0px"
	 viewBox="0 0 800 800" style="enable-background:new 0 0 800 800;" xml:space="preserve">
<g>
	<path d="M374.2,563.3c-20.7,0.1-36.7-13.6-40-33.3c-12.8-75.5-25.6-151-38.4-226.5c-3.6-21.4,10.4-41.6,31.8-45.3
		c36.6-6.4,73.2-12.6,109.8-18.5c20.3-3.3,40.1,11.1,43.6,31.5c11.1,65.1,22.2,130.3,33.2,195.4c1.7,10.2,3.4,20.4,5.2,30.5
		c4.2,23.4-9,43.2-32.4,47.4c-35.7,6.4-71.5,12.2-107.3,18.3C377.5,563.2,375.3,563.2,374.2,563.3z M346.5,495
		c0.7-0.1,1.3-0.3,2-0.4c30.8-5.2,61.7-10.5,92.5-15.7c17.7-3,35.4-6.1,53.2-9c3.3-0.6,5.5-1.2,4.1-5.5c-1.2-3.9-1.5-8.2-2.2-12.3
		c-9.4-55.4-18.8-110.9-28.2-166.3c-0.5-3.1-1.7-4.1-4.9-3.5c-48.9,8.4-97.7,16.7-146.6,25c-3.1,0.5-4.4,1.1-3.7,5
		c6.9,39.2,13.5,78.4,20.1,117.6c3.5,20.3,6.8,40.7,10.3,61C343.4,492.7,342.9,495.5,346.5,495z M504.9,504.2
		c-0.4-2.4-1.1-6.3-1.7-10.2c-1.7-9.8-1.6-9.8-11.1-8.1c-2.5,0.4-4.9,0.8-7.4,1.2c-44.6,7.6-89.3,15.3-133.9,22.7
		c-3.7,0.6-4.3,2-3.7,5.2c0.9,4.6,1.5,9.2,2.5,13.8c2.9,13.2,15.2,21.2,28.5,18.8c10.8-1.9,21.7-3.7,32.5-5.5
		c24.9-4.3,49.9-8.4,74.8-12.8C496.9,527.1,504.9,517.1,504.9,504.2z M462.4,266.8c-4.2-9.1-13.9-13.6-25.4-11.7
		c-35.4,5.9-70.9,12-106.3,18.1c-10.4,1.8-17.8,9.1-19.4,19.3C361.8,283.9,412.1,275.4,462.4,266.8z"/>
	<path d="M401,592.5c-2.3-3.9-4.3-7.1-6.2-10.4c-2.4-4.3-1.5-8.6,2.2-10.9c3.7-2.4,8.1-1.4,10.8,2.8c4.8,7.4,9.3,15,13.9,22.5
		c1.8,3,1.8,6-0.3,8.9c-5.2,7.4-10.2,14.8-15.5,22c-2.8,3.7-7.1,4.3-10.6,1.8c-3.4-2.4-4.3-6.7-1.9-10.6c2.1-3.3,4.4-6.5,7.1-10.4
		c-11,1-21.1,1-31.2,0.7c-35.3-1-63.3-22.7-71.4-55.3c-1.6-6.3,0.3-10.5,5-11.6c4.7-1.1,8.3,1.5,9.8,7.5c4.3,17.4,14.7,29.9,30.5,38
		c9,4.6,18.8,5.5,28.6,6.1C381.2,594.4,390.7,593.9,401,592.5z"/>
	<path d="M403.2,193.6c12-2.4,23.1-4.3,34.4-5.1c33.5-2.5,62.3,15.1,74.8,46.1c2.1,5.2,0.8,9.5-3.5,11.4c-4.4,1.9-8.5,0-10.6-5.4
		c-6.9-17.6-19.5-29.2-37.4-34.7c-12.4-3.8-25.1-2.3-37.7-0.5c-6,0.9-12,2.3-18.7,3.7c2.8,3.5,5.3,6.4,7.6,9.5
		c3.2,4.1,2.8,8.8-0.8,11.5c-3.5,2.7-7.7,2.1-11-1.8c-5.5-6.5-10.8-13.1-16.2-19.7c-2.5-3-2.9-6.2-1.1-9.7
		c3.9-7.5,7.8-15.1,11.8-22.6c2.6-4.8,6.6-6.3,10.7-4.2c4,2.1,5.2,6.5,3,11.1c-0.8,1.6-1.7,3.2-2.5,4.9
		C405.2,189.6,404.5,191.1,403.2,193.6z"/>
	<path d="M260.9,286.1c3.6-23.4,16.4-42.1,39-53.8c4-2.1,8.2-0.5,10.3,3.2c2.1,3.9,0.9,8-3.6,10.5c-9.5,5.2-17.4,12.1-23,21.6
		c-4,6.7-6.4,13.8-7.5,21.5c-0.8,5-3.9,7.8-8.3,7.5C263.4,296.2,260.7,292.8,260.9,286.1z"/>
	<path d="M552.9,517.7c-3.9,23.9-16.5,42.9-39.6,54.5c-3.8,1.9-7.9,0.3-9.9-3.2c-2-3.7-0.8-8.3,3.5-10.6
		c9.9-5.3,17.9-12.6,23.6-22.4c3.9-6.7,6-14,7.3-21.6c0.8-4.7,4.1-7,8.5-6.5C550.4,508.4,553.1,511.8,552.9,517.7z"/>
	<path d="M437.9,508.5c5,0.3,7.8,2.3,8.3,6.6c0.6,4.2-1.4,7.4-5.4,8.4c-6.3,1.5-12.7,2.6-19.2,3.3c-4.1,0.4-7-2-7.7-6.3
		c-0.7-4.2,1-7.5,5.1-8.5C425.4,510.5,432,509.6,437.9,508.5z"/>
</g>
</svg>
